<?xml version="1.0" standalone="no"?>
<!DOCTYPE svg PUBLIC "-//W3C//DTD SVG 20010904//EN"
 "http://www.w3.org/TR/2001/REC-SVG-20010904/DTD/svg10.dtd">
<svg version="1.0" xmlns="http://www.w3.org/2000/svg"
 width="260.000000pt" height="260.000000pt" viewBox="0 0 260.000000 260.000000"
 preserveAspectRatio="xMidYMid meet">
<metadata>
Created by potrace 1.14, written by Peter Selinger 2001-2017
</metadata>
<g transform="translate(0.000000,260.000000) scale(0.100000,-0.100000)"
fill="#000000" stroke="none">
<path d="M595 2365 c-263 -51 -404 -179 -451 -410 -42 -204 35 -412 232 -624
148 -159 364 -287 604 -357 109 -31 139 -36 235 -37 122 0 178 13 282 65 35
17 66 28 70 25 4 -4 -9 -23 -27 -42 -18 -19 -32 -37 -29 -39 2 -2 36 2 74 10
79 15 125 18 125 7 0 -5 -17 -18 -38 -30 l-37 -22 78 -1 c42 0 77 -3 77 -8 0
-4 -26 -19 -57 -34 l-58 -26 48 -1 c57 -1 60 -12 10 -31 -21 -7 -54 -20 -73
-28 l-35 -16 34 -5 c64 -11 46 -28 -46 -44 -182 -33 -284 -41 -498 -40 -206 0
-251 4 -495 40 l-45 6 49 -54 c107 -120 305 -282 441 -362 117 -69 170 -86
257 -87 99 0 149 19 280 106 331 220 640 542 852 887 16 27 16 27 -8 27 -13 0
-114 -14 -223 -30 -199 -31 -408 -62 -538 -80 -154 -21 -336 -32 -445 -26
-129 6 -273 24 -308 37 -26 10 -21 29 9 29 34 0 21 17 -30 39 -58 25 -73 41
-37 41 38 0 38 14 0 35 -19 10 -34 22 -34 27 0 4 28 8 63 8 l62 0 -30 24 c-16
13 -27 27 -24 30 3 3 47 -2 97 -13 l91 -18 -29 27 c-30 28 -36 41 -24 52 3 4
34 -7 70 -24 35 -16 103 -36 151 -45 239 -41 636 75 933 273 233 155 306 330
186 446 -113 110 -346 172 -563 149 -163 -17 -314 -82 -427 -183 l-53 -47 -37
53 c-48 70 -166 184 -242 233 -129 83 -316 118 -469 88z"/>
</g>
</svg>
